<svg xmlns="http://www.w3.org/2000/svg" viewBox="0 0 1920 1080" width="1920" height="1080" preserveAspectRatio="xMidYMid slice" role="img"><defs>
<filter id="paint" x="-12%" y="-12%" width="124%" height="124%" color-interpolation-filters="sRGB">
  <feTurbulence type="fractalNoise" baseFrequency="0.011 0.019" numOctaves="3" seed="11" result="n"/>
  <feDisplacementMap in="SourceGraphic" in2="n" scale="10" xChannelSelector="R" yChannelSelector="G"/>
</filter>
<filter id="paintSoft" x="-12%" y="-12%" width="124%" height="124%" color-interpolation-filters="sRGB">
  <feTurbulence type="fractalNoise" baseFrequency="0.008 0.014" numOctaves="2" seed="4" result="n"/>
  <feDisplacementMap in="SourceGraphic" in2="n" scale="6" xChannelSelector="R" yChannelSelector="G"/>
</filter>
<filter id="haze" x="-20%" y="-20%" width="140%" height="140%" color-interpolation-filters="sRGB">
  <feGaussianBlur stdDeviation="34"/>
</filter>
<filter id="blurSm" x="-30%" y="-30%" width="160%" height="160%" color-interpolation-filters="sRGB">
  <feGaussianBlur stdDeviation="7"/>
</filter>
<filter id="grain" x="0" y="0" width="100%" height="100%" color-interpolation-filters="sRGB">
  <feTurbulence type="fractalNoise" baseFrequency="0.85" numOctaves="3" seed="23"/>
  <feColorMatrix type="saturate" values="0"/>
</filter>
<filter id="canvasTex" x="0" y="0" width="100%" height="100%" color-interpolation-filters="sRGB">
  <feTurbulence type="fractalNoise" baseFrequency="0.03 0.06" numOctaves="4" seed="8"/>
  <feColorMatrix type="saturate" values="0"/>
</filter><linearGradient id="l91" x1="0" y1="0" x2="0" y2="1"><stop offset="0%" stop-color="#0a1418" stop-opacity="1"/><stop offset="100%" stop-color="#101a1c" stop-opacity="1"/></linearGradient><linearGradient id="l92" x1="0" y1="0" x2="0" y2="1"><stop offset="0%" stop-color="#1b2426" stop-opacity="1"/><stop offset="100%" stop-color="#080d0f" stop-opacity="1"/></linearGradient><linearGradient id="l93" x1="0" y1="0" x2="0" y2="1"><stop offset="0%" stop-color="#12262b" stop-opacity="1"/><stop offset="70%" stop-color="#2b4c4a" stop-opacity="1"/><stop offset="100%" stop-color="#6d5a3a" stop-opacity="1"/></linearGradient><radialGradient id="g94"><stop offset="0%" stop-color="#8fe6b4" stop-opacity="0.4"/><stop offset="38%" stop-color="#8fe6b4" stop-opacity="0.168"/><stop offset="100%" stop-color="#8fe6b4" stop-opacity="0"/></radialGradient><radialGradient id="g95"><stop offset="0%" stop-color="#7fe0c4" stop-opacity="0.85"/><stop offset="38%" stop-color="#7fe0c4" stop-opacity="0.357"/><stop offset="100%" stop-color="#7fe0c4" stop-opacity="0"/></radialGradient><radialGradient id="g96"><stop offset="0%" stop-color="#ffdca6" stop-opacity="0.9"/><stop offset="38%" stop-color="#ffdca6" stop-opacity="0.378"/><stop offset="100%" stop-color="#ffdca6" stop-opacity="0"/></radialGradient><radialGradient id="g97"><stop offset="0%" stop-color="#ffdca6" stop-opacity="0.9"/><stop offset="38%" stop-color="#ffdca6" stop-opacity="0.378"/><stop offset="100%" stop-color="#ffdca6" stop-opacity="0"/></radialGradient><radialGradient id="g98"><stop offset="0%" stop-color="#ffdca6" stop-opacity="0.9"/><stop offset="38%" stop-color="#ffdca6" stop-opacity="0.378"/><stop offset="100%" stop-color="#ffdca6" stop-opacity="0"/></radialGradient><radialGradient id="g99"><stop offset="0%" stop-color="#ffdca6" stop-opacity="0.9"/><stop offset="38%" stop-color="#ffdca6" stop-opacity="0.378"/><stop offset="100%" stop-color="#ffdca6" stop-opacity="0"/></radialGradient><radialGradient id="g100"><stop offset="0%" stop-color="#ffdca6" stop-opacity="0.9"/><stop offset="38%" stop-color="#ffdca6" stop-opacity="0.378"/><stop offset="100%" stop-color="#ffdca6" stop-opacity="0"/></radialGradient><radialGradient id="g101"><stop offset="0%" stop-color="#ffdca6" stop-opacity="0.9"/><stop offset="38%" stop-color="#ffdca6" stop-opacity="0.378"/><stop offset="100%" stop-color="#ffdca6" stop-opacity="0"/></radialGradient><radialGradient id="g102"><stop offset="0%" stop-color="#ffdca6" stop-opacity="0.42"/><stop offset="38%" stop-color="#ffdca6" stop-opacity="0.176"/><stop offset="100%" stop-color="#ffdca6" stop-opacity="0"/></radialGradient><radialGradient id="g103"><stop offset="0%" stop-color="#ffdca6" stop-opacity="0.42"/><stop offset="38%" stop-color="#ffdca6" stop-opacity="0.176"/><stop offset="100%" stop-color="#ffdca6" stop-opacity="0"/></radialGradient><linearGradient id="l104" x1="0" y1="0" x2="0" y2="1"><stop offset="0%" stop-color="#2f6b6d" stop-opacity="0"/><stop offset="50%" stop-color="#2f6b6d" stop-opacity="0.16"/><stop offset="100%" stop-color="#2f6b6d" stop-opacity="0"/></linearGradient><radialGradient id="v105" cx="50%" cy="48%" r="72%"><stop offset="45%" stop-color="#000" stop-opacity="0"/><stop offset="100%" stop-color="#000" stop-opacity="0.72"/></radialGradient></defs><rect width="1920" height="1080" fill="url(#l91)"/><path fill="url(#l92)" d="M -40 686 L 1960 686 L 1960 1120 L -40 1120 Z"/><rect x="-40" y="680" width="2000" height="12" fill="#000" opacity="0.35" filter="url(#blurSm)"/><rect x="-40" y="-40" width="2000" height="230" fill="#000" opacity="0.5" filter="url(#haze)"/><path fill="url(#l93)" filter="url(#paintSoft)" d="M 150 240 C 620 132 1300 132 1770 240 L 1770 604 C 1300 560 620 560 150 604 Z"/><circle cx="1545" cy="427" r="1.8" fill="#ffdca6" opacity="0.61"/><circle cx="1012" cy="482" r="2.9" fill="#ffdca6" opacity="0.78"/><circle cx="925" cy="462" r="2.2" fill="#ffdca6" opacity="0.63"/><circle cx="897" cy="494" r="2.4" fill="#ffdca6" opacity="0.61"/><circle cx="787" cy="539" r="3.3" fill="#ffdca6" opacity="0.42"/><circle cx="368" cy="429" r="2.3" fill="#ffdca6" opacity="0.46"/><circle cx="211" cy="484" r="1.8" fill="#ffdca6" opacity="0.53"/><circle cx="1498" cy="536" r="3.3" fill="#ffdca6" opacity="0.23"/><circle cx="1333" cy="524" r="2.6" fill="#ffdca6" opacity="0.76"/><circle cx="492" cy="435" r="1.5" fill="#ffdca6" opacity="0.25"/><circle cx="954" cy="553" r="1.8" fill="#ffdca6" opacity="0.67"/><circle cx="1671" cy="478" r="1.3" fill="#ffdca6" opacity="0.66"/><circle cx="1490" cy="503" r="3.3" fill="#ffdca6" opacity="0.53"/><circle cx="1522" cy="443" r="3.0" fill="#ffdca6" opacity="0.62"/><circle cx="1229" cy="456" r="3.4" fill="#ffdca6" opacity="0.33"/><circle cx="1332" cy="544" r="1.7" fill="#ffdca6" opacity="0.45"/><circle cx="856" cy="505" r="3.2" fill="#ffdca6" opacity="0.55"/><circle cx="672" cy="521" r="3.2" fill="#ffdca6" opacity="0.68"/><circle cx="1603" cy="511" r="1.4" fill="#ffdca6" opacity="0.35"/><circle cx="986" cy="434" r="2.3" fill="#ffdca6" opacity="0.33"/><circle cx="1184" cy="509" r="1.2" fill="#ffdca6" opacity="0.47"/><circle cx="803" cy="458" r="1.4" fill="#ffdca6" opacity="0.53"/><circle cx="1379" cy="561" r="1.6" fill="#ffdca6" opacity="0.64"/><circle cx="1058" cy="566" r="3.1" fill="#ffdca6" opacity="0.77"/><circle cx="1086" cy="500" r="2.3" fill="#ffdca6" opacity="0.42"/><circle cx="503" cy="564" r="3.0" fill="#ffdca6" opacity="0.50"/><circle cx="1008" cy="478" r="1.8" fill="#ffdca6" opacity="0.61"/><circle cx="1216" cy="475" r="1.7" fill="#ffdca6" opacity="0.58"/><circle cx="1524" cy="507" r="3.4" fill="#ffdca6" opacity="0.29"/><circle cx="1121" cy="513" r="2.7" fill="#ffdca6" opacity="0.44"/><circle cx="1409" cy="499" r="1.1" fill="#ffdca6" opacity="0.34"/><circle cx="1236" cy="511" r="3.1" fill="#ffdca6" opacity="0.48"/><circle cx="513" cy="504" r="3.0" fill="#ffdca6" opacity="0.28"/><circle cx="1465" cy="441" r="1.3" fill="#ffdca6" opacity="0.23"/><circle cx="219" cy="535" r="3.0" fill="#ffdca6" opacity="0.39"/><circle cx="332" cy="534" r="2.7" fill="#ffdca6" opacity="0.53"/><circle cx="1689" cy="457" r="1.6" fill="#ffdca6" opacity="0.72"/><circle cx="213" cy="544" r="1.0" fill="#ffdca6" opacity="0.25"/><circle cx="357" cy="507" r="2.9" fill="#ffdca6" opacity="0.55"/><circle cx="1100" cy="563" r="1.3" fill="#ffdca6" opacity="0.64"/><circle cx="1312" cy="520" r="1.5" fill="#ffdca6" opacity="0.79"/><circle cx="1401" cy="525" r="1.3" fill="#ffdca6" opacity="0.66"/><circle cx="1654" cy="550" r="1.1" fill="#ffdca6" opacity="0.27"/><circle cx="1143" cy="520" r="2.7" fill="#ffdca6" opacity="0.47"/><circle cx="1457" cy="483" r="2.3" fill="#ffdca6" opacity="0.22"/><circle cx="1423" cy="539" r="3.0" fill="#ffdca6" opacity="0.73"/><circle cx="1715" cy="457" r="2.1" fill="#ffdca6" opacity="0.39"/><circle cx="1641" cy="430" r="1.8" fill="#ffdca6" opacity="0.49"/><circle cx="1636" cy="567" r="1.1" fill="#ffdca6" opacity="0.33"/><circle cx="684" cy="491" r="2.2" fill="#ffdca6" opacity="0.46"/><circle cx="1407" cy="477" r="3.3" fill="#ffdca6" opacity="0.63"/><circle cx="514" cy="466" r="1.4" fill="#ffdca6" opacity="0.68"/><circle cx="1209" cy="421" r="2.1" fill="#ffdca6" opacity="0.38"/><circle cx="1381" cy="533" r="1.6" fill="#ffdca6" opacity="0.54"/><circle cx="1104" cy="460" r="2.1" fill="#ffdca6" opacity="0.63"/><circle cx="988" cy="546" r="3.1" fill="#ffdca6" opacity="0.43"/><circle cx="243" cy="522" r="2.7" fill="#ffdca6" opacity="0.40"/><circle cx="672" cy="512" r="1.5" fill="#ffdca6" opacity="0.36"/><circle cx="1559" cy="506" r="1.1" fill="#ffdca6" opacity="0.49"/><circle cx="1684" cy="529" r="2.4" fill="#ffdca6" opacity="0.80"/><circle cx="387" cy="568" r="2.8" fill="#ffdca6" opacity="0.51"/><circle cx="783" cy="462" r="2.2" fill="#ffdca6" opacity="0.39"/><circle cx="1679" cy="562" r="3.0" fill="#ffdca6" opacity="0.63"/><circle cx="563" cy="566" r="3.3" fill="#ffdca6" opacity="0.23"/><circle cx="1111" cy="426" r="2.7" fill="#ffdca6" opacity="0.21"/><circle cx="630" cy="508" r="2.0" fill="#ffdca6" opacity="0.77"/><circle cx="945" cy="466" r="1.7" fill="#ffdca6" opacity="0.49"/><circle cx="412" cy="540" r="1.7" fill="#ffdca6" opacity="0.43"/><circle cx="576" cy="481" r="1.0" fill="#ffdca6" opacity="0.64"/><circle cx="1311" cy="459" r="1.6" fill="#ffdca6" opacity="0.68"/><circle cx="265" cy="447" r="1.2" fill="#ffdca6" opacity="0.20"/><circle cx="470" cy="421" r="2.3" fill="#ffdca6" opacity="0.24"/><circle cx="1119" cy="481" r="2.0" fill="#ffdca6" opacity="0.30"/><circle cx="809" cy="453" r="2.4" fill="#ffdca6" opacity="0.56"/><circle cx="1312" cy="570" r="1.6" fill="#ffdca6" opacity="0.49"/><circle cx="373" cy="456" r="2.0" fill="#ffdca6" opacity="0.36"/><circle cx="880" cy="482" r="3.4" fill="#ffdca6" opacity="0.32"/><circle cx="1017" cy="558" r="1.6" fill="#ffdca6" opacity="0.27"/><circle cx="1219" cy="484" r="1.4" fill="#ffdca6" opacity="0.76"/><circle cx="1024" cy="468" r="1.9" fill="#ffdca6" opacity="0.79"/><circle cx="828" cy="450" r="1.7" fill="#ffdca6" opacity="0.75"/><circle cx="907" cy="517" r="2.1" fill="#ffdca6" opacity="0.69"/><circle cx="1157" cy="519" r="3.0" fill="#ffdca6" opacity="0.78"/><circle cx="836" cy="505" r="2.8" fill="#ffdca6" opacity="0.75"/><circle cx="1007" cy="452" r="1.9" fill="#ffdca6" opacity="0.43"/><circle cx="475" cy="542" r="2.7" fill="#ffdca6" opacity="0.70"/><circle cx="1030" cy="531" r="2.6" fill="#ffdca6" opacity="0.55"/><circle cx="1220" cy="435" r="3.1" fill="#ffdca6" opacity="0.36"/><circle cx="1401" cy="559" r="3.1" fill="#ffdca6" opacity="0.52"/><circle cx="1608" cy="468" r="3.4" fill="#ffdca6" opacity="0.58"/><path fill="#0b1416" opacity="0.9" d="M 150 560 C 620 516 1300 516 1770 560 L 1770 640 C 1300 596 620 596 150 640 Z"/><g stroke="#0a1213" stroke-width="12" opacity="0.85" fill="none"><path d="M 190 210.35 L 190 595.06"/><path d="M 385 199.625 L 385 599.35"/><path d="M 580 188.9 L 580 603.64"/><path d="M 775 178.175 L 775 607.93"/><path d="M 970 168.55 L 970 611.78"/><path d="M 1165 179.275 L 1165 607.49"/><path d="M 1360 190 L 1360 603.2"/><path d="M 1555 200.725 L 1555 598.91"/><path d="M 1750 211.45 L 1750 594.62"/></g><path fill="#1d1712" filter="url(#paint)" d="M 250 700 C 560 640 1360 640 1670 700 L 1700 760 C 1340 692 580 692 220 760 Z"/><ellipse cx="960" cy="800" rx="620" ry="300" fill="url(#g94)"/><ellipse cx="960" cy="880" rx="430" ry="150" fill="#150f0a" filter="url(#paintSoft)"/><ellipse cx="960" cy="856" rx="410" ry="134" fill="#241a10"/><ellipse cx="960" cy="852" rx="360" ry="112" fill="url(#g95)"/><g stroke="#d9a75a" stroke-width="3" fill="none" opacity="0.75"><ellipse cx="960" cy="852" rx="300" ry="92"/><ellipse cx="960" cy="852" rx="200" ry="60"/><ellipse cx="960" cy="852" rx="96" ry="28"/><path d="M 660 852 L 1260 852 M 960 760 L 960 944"/></g><ellipse cx="820" cy="826" rx="34" ry="34" fill="url(#g96)"/><circle cx="820" cy="826" r="5" fill="#fff2d6"/><ellipse cx="1080" cy="878" rx="34" ry="34" fill="url(#g97)"/><circle cx="1080" cy="878" r="5" fill="#fff2d6"/><ellipse cx="960" cy="800" rx="34" ry="34" fill="url(#g98)"/><circle cx="960" cy="800" r="5" fill="#fff2d6"/><ellipse cx="1140" cy="830" rx="34" ry="34" fill="url(#g99)"/><circle cx="1140" cy="830" r="5" fill="#fff2d6"/><ellipse cx="780" cy="892" rx="34" ry="34" fill="url(#g100)"/><circle cx="780" cy="892" r="5" fill="#fff2d6"/><ellipse cx="1010" cy="906" rx="34" ry="34" fill="url(#g101)"/><circle cx="1010" cy="906" r="5" fill="#fff2d6"/><g filter="url(#paintSoft)"><rect x="96" y="150" width="54" height="610" fill="#1a1512"/><rect x="88" y="150" width="70" height="18" fill="#3a322a"/><rect x="88" y="738" width="70" height="22" fill="#3a322a"/><rect x="129.48" y="150" width="20.52" height="610" fill="#000" opacity="0.35"/></g><g filter="url(#paintSoft)"><rect x="1770" y="150" width="54" height="610" fill="#1a1512"/><rect x="1762" y="150" width="70" height="18" fill="#3a322a"/><rect x="1762" y="738" width="70" height="22" fill="#3a322a"/><rect x="1803.48" y="150" width="20.52" height="610" fill="#000" opacity="0.35"/></g><ellipse cx="300" cy="214" rx="30" ry="30" fill="url(#g102)"/><circle cx="300" cy="214" r="6" fill="#ffdca6" opacity="0.95"/><ellipse cx="1620" cy="214" rx="30" ry="30" fill="url(#g103)"/><circle cx="1620" cy="214" r="6" fill="#ffdca6" opacity="0.95"/><rect x="-40" y="520" width="2000" height="260" fill="url(#l104)" filter="url(#haze)"/><rect width="1920" height="1080" fill="url(#v105)"/><rect width="1920" height="1080" filter="url(#canvasTex)" opacity="0.05" style="mix-blend-mode:overlay"/><rect width="1920" height="1080" filter="url(#grain)" opacity="0.08" style="mix-blend-mode:overlay"/></svg>
