<svg xmlns="http://www.w3.org/2000/svg" viewBox="0 0 1920 1080" width="1920" height="1080" preserveAspectRatio="xMidYMid slice" role="img"><defs>
<filter id="paint" x="-12%" y="-12%" width="124%" height="124%" color-interpolation-filters="sRGB">
  <feTurbulence type="fractalNoise" baseFrequency="0.011 0.019" numOctaves="3" seed="11" result="n"/>
  <feDisplacementMap in="SourceGraphic" in2="n" scale="10" xChannelSelector="R" yChannelSelector="G"/>
</filter>
<filter id="paintSoft" x="-12%" y="-12%" width="124%" height="124%" color-interpolation-filters="sRGB">
  <feTurbulence type="fractalNoise" baseFrequency="0.008 0.014" numOctaves="2" seed="4" result="n"/>
  <feDisplacementMap in="SourceGraphic" in2="n" scale="6" xChannelSelector="R" yChannelSelector="G"/>
</filter>
<filter id="haze" x="-20%" y="-20%" width="140%" height="140%" color-interpolation-filters="sRGB">
  <feGaussianBlur stdDeviation="34"/>
</filter>
<filter id="blurSm" x="-30%" y="-30%" width="160%" height="160%" color-interpolation-filters="sRGB">
  <feGaussianBlur stdDeviation="7"/>
</filter>
<filter id="grain" x="0" y="0" width="100%" height="100%" color-interpolation-filters="sRGB">
  <feTurbulence type="fractalNoise" baseFrequency="0.85" numOctaves="3" seed="23"/>
  <feColorMatrix type="saturate" values="0"/>
</filter>
<filter id="canvasTex" x="0" y="0" width="100%" height="100%" color-interpolation-filters="sRGB">
  <feTurbulence type="fractalNoise" baseFrequency="0.03 0.06" numOctaves="4" seed="8"/>
  <feColorMatrix type="saturate" values="0"/>
</filter><linearGradient id="l123" x1="0" y1="0" x2="0" y2="1"><stop offset="0%" stop-color="#080d10" stop-opacity="1"/><stop offset="100%" stop-color="#111a1d" stop-opacity="1"/></linearGradient><linearGradient id="l124" x1="0" y1="0" x2="0" y2="1"><stop offset="0%" stop-color="#1b2326" stop-opacity="1"/><stop offset="100%" stop-color="#070b0d" stop-opacity="1"/></linearGradient><radialGradient id="g125"><stop offset="0%" stop-color="#2f6b6d" stop-opacity="0.22"/><stop offset="38%" stop-color="#2f6b6d" stop-opacity="0.092"/><stop offset="100%" stop-color="#2f6b6d" stop-opacity="0"/></radialGradient><radialGradient id="g126"><stop offset="0%" stop-color="#ffdca6" stop-opacity="0.42"/><stop offset="38%" stop-color="#ffdca6" stop-opacity="0.176"/><stop offset="100%" stop-color="#ffdca6" stop-opacity="0"/></radialGradient><radialGradient id="g127"><stop offset="0%" stop-color="#ffdca6" stop-opacity="0.42"/><stop offset="38%" stop-color="#ffdca6" stop-opacity="0.176"/><stop offset="100%" stop-color="#ffdca6" stop-opacity="0"/></radialGradient><radialGradient id="g128"><stop offset="0%" stop-color="#ffdca6" stop-opacity="0.42"/><stop offset="38%" stop-color="#ffdca6" stop-opacity="0.176"/><stop offset="100%" stop-color="#ffdca6" stop-opacity="0"/></radialGradient><radialGradient id="g129"><stop offset="0%" stop-color="#ffdca6" stop-opacity="0.42"/><stop offset="38%" stop-color="#ffdca6" stop-opacity="0.176"/><stop offset="100%" stop-color="#ffdca6" stop-opacity="0"/></radialGradient><radialGradient id="g130"><stop offset="0%" stop-color="#ffdca6" stop-opacity="0.42"/><stop offset="38%" stop-color="#ffdca6" stop-opacity="0.176"/><stop offset="100%" stop-color="#ffdca6" stop-opacity="0"/></radialGradient><radialGradient id="g131"><stop offset="0%" stop-color="#ffdca6" stop-opacity="0.42"/><stop offset="38%" stop-color="#ffdca6" stop-opacity="0.176"/><stop offset="100%" stop-color="#ffdca6" stop-opacity="0"/></radialGradient><radialGradient id="g132"><stop offset="0%" stop-color="#ffdca6" stop-opacity="0.42"/><stop offset="38%" stop-color="#ffdca6" stop-opacity="0.176"/><stop offset="100%" stop-color="#ffdca6" stop-opacity="0"/></radialGradient><radialGradient id="g133"><stop offset="0%" stop-color="#ffdca6" stop-opacity="0.42"/><stop offset="38%" stop-color="#ffdca6" stop-opacity="0.176"/><stop offset="100%" stop-color="#ffdca6" stop-opacity="0"/></radialGradient><radialGradient id="g134"><stop offset="0%" stop-color="#ffb861" stop-opacity="0.5"/><stop offset="38%" stop-color="#ffb861" stop-opacity="0.210"/><stop offset="100%" stop-color="#ffb861" stop-opacity="0"/></radialGradient><linearGradient id="l135" x1="0" y1="0" x2="0" y2="1"><stop offset="0%" stop-color="#1d454b" stop-opacity="0"/><stop offset="50%" stop-color="#1d454b" stop-opacity="0.24"/><stop offset="100%" stop-color="#1d454b" stop-opacity="0"/></linearGradient><radialGradient id="v136" cx="50%" cy="48%" r="72%"><stop offset="45%" stop-color="#000" stop-opacity="0"/><stop offset="100%" stop-color="#000" stop-opacity="0.72"/></radialGradient></defs><rect width="1920" height="1080" fill="url(#l123)"/><path fill="url(#l124)" d="M -40 640 L 1960 640 L 1960 1120 L -40 1120 Z"/><rect x="-40" y="634" width="2000" height="12" fill="#000" opacity="0.35" filter="url(#blurSm)"/><rect x="-40" y="-40" width="2000" height="230" fill="#000" opacity="0.5" filter="url(#haze)"/><path fill="none" stroke="#1b2427" stroke-width="26" d="M 100 700 L 100 395.2 A 860 584.8000000000001 0 0 1 1820 395.2 L 1820 700"/><path fill="none" stroke="#1b2427" stroke-width="23" d="M 218 700 L 218 407.44 A 742 504.56000000000006 0 0 1 1702 407.44 L 1702 700"/><path fill="none" stroke="#1b2427" stroke-width="20" d="M 336 700 L 336 419.68 A 624 424.32000000000005 0 0 1 1584 419.68 L 1584 700"/><path fill="none" stroke="#1b2427" stroke-width="16" d="M 454 700 L 454 431.92 A 506 344.08000000000004 0 0 1 1466 431.92 L 1466 700"/><path fill="none" stroke="#1b2427" stroke-width="13" d="M 572 700 L 572 444.15999999999997 A 388 263.84000000000003 0 0 1 1348 444.15999999999997 L 1348 700"/><path fill="none" stroke="#1b2427" stroke-width="10" d="M 690 700 L 690 456.4 A 270 183.60000000000002 0 0 1 1230 456.4 L 1230 700"/><ellipse cx="960" cy="470" rx="520" ry="520" fill="url(#g125)"/><g stroke="#a97b34" stroke-width="4.0" fill="none" opacity="0.28"><path d="M 658.6 390 L 801.4 390"/><path d="M 1118.6 390 L 1261.4 390"/><path d="M 658.6 390 L 658.6 570"/><path d="M 1261.4 390 L 1261.4 570"/></g><g transform="translate(730 500) scale(0.42)" filter="url(#paintSoft)"><path stroke="#1b2225" stroke-width="33.3" d="M -104 26 L -104 108 M 104 26 L 104 108"/><path fill="#222c2f" d="M -150 0 L -60 -54 L 60 -54 L 150 0 L 60 26 L -60 26 Z"/><path fill="#2e3a3d" d="M -60 -54 L 60 -54 L 34 -84 L -34 -84 Z"/><path fill="#0a0f11" opacity="0.55" d="M -150 0 L 150 0 L 60 26 L -60 26 Z"/><path fill="#ffdca6" opacity="0.12" d="M -150 0 L -60 -54 L -46 -54 L -132 2 Z"/></g><g transform="translate(1190 500) scale(0.42)" filter="url(#paintSoft)"><path stroke="#1b2225" stroke-width="33.3" d="M -104 26 L -104 108 M 104 26 L 104 108"/><path fill="#222c2f" d="M -150 0 L -60 -54 L 60 -54 L 150 0 L 60 26 L -60 26 Z"/><path fill="#2e3a3d" d="M -60 -54 L 60 -54 L 34 -84 L -34 -84 Z"/><path fill="#0a0f11" opacity="0.55" d="M -150 0 L 150 0 L 60 26 L -60 26 Z"/><path fill="#ffdca6" opacity="0.12" d="M -150 0 L -60 -54 L -46 -54 L -132 2 Z"/></g><ellipse cx="730" cy="384" rx="15" ry="15" fill="url(#g126)"/><circle cx="730" cy="384" r="3" fill="#ffdca6" opacity="0.95"/><ellipse cx="1190" cy="384" rx="15" ry="15" fill="url(#g127)"/><circle cx="1190" cy="384" r="3" fill="#ffdca6" opacity="0.95"/><g stroke="#a97b34" stroke-width="5.6" fill="none" opacity="0.36"><path d="M 414.6 508 L 625.4 508"/><path d="M 1294.6 508 L 1505.4 508"/><path d="M 414.6 508 L 414.6 688"/><path d="M 1505.4 508 L 1505.4 688"/></g><g transform="translate(520 618) scale(0.62)" filter="url(#paintSoft)"><path stroke="#1b2225" stroke-width="22.6" d="M -104 26 L -104 108 M 104 26 L 104 108"/><path fill="#222c2f" d="M -150 0 L -60 -54 L 60 -54 L 150 0 L 60 26 L -60 26 Z"/><path fill="#2e3a3d" d="M -60 -54 L 60 -54 L 34 -84 L -34 -84 Z"/><path fill="#0a0f11" opacity="0.55" d="M -150 0 L 150 0 L 60 26 L -60 26 Z"/><path fill="#ffdca6" opacity="0.12" d="M -150 0 L -60 -54 L -46 -54 L -132 2 Z"/></g><g transform="translate(1400 618) scale(0.62)" filter="url(#paintSoft)"><path stroke="#1b2225" stroke-width="22.6" d="M -104 26 L -104 108 M 104 26 L 104 108"/><path fill="#222c2f" d="M -150 0 L -60 -54 L 60 -54 L 150 0 L 60 26 L -60 26 Z"/><path fill="#2e3a3d" d="M -60 -54 L 60 -54 L 34 -84 L -34 -84 Z"/><path fill="#0a0f11" opacity="0.55" d="M -150 0 L 150 0 L 60 26 L -60 26 Z"/><path fill="#ffdca6" opacity="0.12" d="M -150 0 L -60 -54 L -46 -54 L -132 2 Z"/></g><ellipse cx="520" cy="502" rx="20" ry="20" fill="url(#g128)"/><circle cx="520" cy="502" r="4" fill="#ffdca6" opacity="0.95"/><ellipse cx="1400" cy="502" rx="20" ry="20" fill="url(#g129)"/><circle cx="1400" cy="502" r="4" fill="#ffdca6" opacity="0.95"/><g stroke="#a97b34" stroke-width="7.2" fill="none" opacity="0.44"><path d="M 170.6 626 L 449.4 626"/><path d="M 1470.6 626 L 1749.4 626"/><path d="M 170.6 626 L 170.6 806"/><path d="M 1749.4 626 L 1749.4 806"/></g><g transform="translate(310 736) scale(0.8200000000000001)" filter="url(#paintSoft)"><path stroke="#1b2225" stroke-width="17.1" d="M -104 26 L -104 108 M 104 26 L 104 108"/><path fill="#222c2f" d="M -150 0 L -60 -54 L 60 -54 L 150 0 L 60 26 L -60 26 Z"/><path fill="#2e3a3d" d="M -60 -54 L 60 -54 L 34 -84 L -34 -84 Z"/><path fill="#0a0f11" opacity="0.55" d="M -150 0 L 150 0 L 60 26 L -60 26 Z"/><path fill="#ffdca6" opacity="0.12" d="M -150 0 L -60 -54 L -46 -54 L -132 2 Z"/></g><g transform="translate(1610 736) scale(0.8200000000000001)" filter="url(#paintSoft)"><path stroke="#1b2225" stroke-width="17.1" d="M -104 26 L -104 108 M 104 26 L 104 108"/><path fill="#222c2f" d="M -150 0 L -60 -54 L 60 -54 L 150 0 L 60 26 L -60 26 Z"/><path fill="#2e3a3d" d="M -60 -54 L 60 -54 L 34 -84 L -34 -84 Z"/><path fill="#0a0f11" opacity="0.55" d="M -150 0 L 150 0 L 60 26 L -60 26 Z"/><path fill="#ffdca6" opacity="0.12" d="M -150 0 L -60 -54 L -46 -54 L -132 2 Z"/></g><ellipse cx="310" cy="620" rx="25" ry="25" fill="url(#g130)"/><circle cx="310" cy="620" r="5" fill="#ffdca6" opacity="0.95"/><ellipse cx="1610" cy="620" rx="25" ry="25" fill="url(#g131)"/><circle cx="1610" cy="620" r="5" fill="#ffdca6" opacity="0.95"/><g stroke="#a97b34" stroke-width="8.8" fill="none" opacity="0.52"><path d="M -73.4 744 L 273.4 744"/><path d="M 1646.6 744 L 1993.4 744"/><path d="M -73.4 744 L -73.4 924"/><path d="M 1993.4 744 L 1993.4 924"/></g><g transform="translate(100 854) scale(1.02)" filter="url(#paintSoft)"><path stroke="#1b2225" stroke-width="13.7" d="M -104 26 L -104 108 M 104 26 L 104 108"/><path fill="#222c2f" d="M -150 0 L -60 -54 L 60 -54 L 150 0 L 60 26 L -60 26 Z"/><path fill="#2e3a3d" d="M -60 -54 L 60 -54 L 34 -84 L -34 -84 Z"/><path fill="#0a0f11" opacity="0.55" d="M -150 0 L 150 0 L 60 26 L -60 26 Z"/><path fill="#ffdca6" opacity="0.12" d="M -150 0 L -60 -54 L -46 -54 L -132 2 Z"/></g><g transform="translate(1820 854) scale(1.02)" filter="url(#paintSoft)"><path stroke="#1b2225" stroke-width="13.7" d="M -104 26 L -104 108 M 104 26 L 104 108"/><path fill="#222c2f" d="M -150 0 L -60 -54 L 60 -54 L 150 0 L 60 26 L -60 26 Z"/><path fill="#2e3a3d" d="M -60 -54 L 60 -54 L 34 -84 L -34 -84 Z"/><path fill="#0a0f11" opacity="0.55" d="M -150 0 L 150 0 L 60 26 L -60 26 Z"/><path fill="#ffdca6" opacity="0.12" d="M -150 0 L -60 -54 L -46 -54 L -132 2 Z"/></g><ellipse cx="100" cy="738" rx="30" ry="30" fill="url(#g132)"/><circle cx="100" cy="738" r="6" fill="#ffdca6" opacity="0.95"/><ellipse cx="1820" cy="738" rx="30" ry="30" fill="url(#g133)"/><circle cx="1820" cy="738" r="6" fill="#ffdca6" opacity="0.95"/><ellipse cx="960" cy="700" rx="620" ry="620" fill="url(#g134)"/><g transform="translate(960 726) scale(1.25)" filter="url(#paintSoft)"><path stroke="#1b2225" stroke-width="11.2" d="M -104 26 L -104 108 M 104 26 L 104 108"/><path fill="#5c4f3a" d="M -150 0 L -60 -54 L 60 -54 L 150 0 L 60 26 L -60 26 Z"/><path fill="#7d6a49" d="M -60 -54 L 60 -54 L 34 -84 L -34 -84 Z"/><rect x="-16" y="-80" width="32" height="20" rx="5" fill="#ffdca6" opacity="0.95"/><path fill="#0a0f11" opacity="0.55" d="M -150 0 L 150 0 L 60 26 L -60 26 Z"/><path fill="#ffdca6" opacity="0.3" d="M -150 0 L -60 -54 L -46 -54 L -132 2 Z"/></g><g stroke="#a97b34" stroke-width="5" opacity="0.3" fill="none"><path d="M 560 1040 L 810 700 M 1360 1040 L 1110 700"/></g><rect x="-40" y="560" width="2000" height="300" fill="url(#l135)" filter="url(#haze)"/><rect width="1920" height="1080" fill="url(#v136)"/><rect width="1920" height="1080" filter="url(#canvasTex)" opacity="0.05" style="mix-blend-mode:overlay"/><rect width="1920" height="1080" filter="url(#grain)" opacity="0.08" style="mix-blend-mode:overlay"/></svg>
